<svg width="134" height="134" viewBox="0 0 134 134" fill="none" xmlns="http://www.w3.org/2000/svg">
<path d="M16.75 18.75C16.75 17.6454 17.6454 16.75 18.75 16.75H115.25C116.355 16.75 117.25 17.6454 117.25 18.75V115.25C117.25 116.355 116.355 117.25 115.25 117.25H18.75C17.6454 117.25 16.75 116.355 16.75 115.25V18.75Z" stroke="#EEEEEE" stroke-width="5" stroke-linecap="round" stroke-linejoin="round"/>
<path d="M75.375 44.6663C75.375 49.2917 71.6254 53.0413 67 53.0413C62.3746 53.0413 58.625 49.2917 58.625 44.6663C58.625 40.0409 62.3746 36.2913 67 36.2913C71.6254 36.2913 75.375 40.0409 75.375 44.6663Z" fill="#EEEEEE"/>
<path d="M67 67V89.3333" stroke="#EEEEEE" stroke-width="5" stroke-linecap="round" stroke-linejoin="round"/>
</svg>
