<svg width="47" height="47" viewBox="0 0 47 47" fill="none" xmlns="http://www.w3.org/2000/svg">
<circle cx="23.4419" cy="23.4419" r="22.4419" stroke="#215695" stroke-width="2"/>
<g clip-path="url(#clip0_157_99)">
<path fill-rule="evenodd" clip-rule="evenodd" d="M23.7204 10.2806C20.5222 10.2822 17.4287 11.415 14.9933 13.4763C12.5579 15.5377 10.9393 18.3932 10.427 21.5322C9.91463 24.6712 10.5419 27.8891 12.1967 30.6105C13.8515 33.3318 16.4258 35.3792 19.4595 36.3865C20.1287 36.5107 20.3808 36.0959 20.3808 35.7432C20.3808 35.3905 20.3674 34.3679 20.363 33.2499C16.6151 34.0596 15.8231 31.6684 15.8231 31.6684C15.2119 30.1156 14.3284 29.7075 14.3284 29.7075C13.1059 28.8779 14.4199 28.8934 14.4199 28.8934C15.774 28.9888 16.4857 30.2754 16.4857 30.2754C17.6859 32.3227 19.6379 31.7305 20.4053 31.3845C20.5258 30.5171 20.8761 29.9271 21.262 29.5922C18.2682 29.255 15.1226 28.106 15.1226 22.9731C15.1041 21.6419 15.6009 20.3545 16.5102 19.3774C16.3719 19.0402 15.9101 17.6782 16.6419 15.8283C16.6419 15.8283 17.7729 15.4689 20.3474 17.2013C22.5555 16.6009 24.8853 16.6009 27.0935 17.2013C29.6657 15.4689 30.7946 15.8283 30.7946 15.8283C31.5285 17.6738 31.0667 19.0358 30.9284 19.3774C31.8407 20.3547 32.3385 21.6443 32.3183 22.9775C32.3183 28.1215 29.166 29.255 26.1677 29.5855C26.6496 30.0025 27.0802 30.8166 27.0802 32.0677C27.0802 33.8599 27.0645 35.3018 27.0645 35.7432C27.0645 36.1003 27.3077 36.5173 27.9903 36.3865C31.0243 35.3791 33.5989 33.3313 35.2537 30.6095C36.9084 27.8877 37.5354 24.6693 37.0225 21.53C36.5095 18.3907 34.8901 15.5352 32.4539 13.4742C30.0177 11.4132 26.9236 10.2812 23.7249 10.2806H23.7204Z" fill="#215695"/>
<path d="M15.3496 29.5145C15.3206 29.5811 15.2135 29.601 15.1265 29.5544C15.0395 29.5079 14.9748 29.4213 15.006 29.3526C15.0373 29.2838 15.1421 29.2661 15.2291 29.3127C15.3161 29.3592 15.383 29.448 15.3496 29.5145Z" fill="#215695"/>
<path d="M15.8962 30.1201C15.85 30.1432 15.7972 30.1497 15.7467 30.1383C15.6962 30.127 15.6513 30.0986 15.6196 30.0579C15.5326 29.9648 15.5147 29.8361 15.5817 29.7785C15.6486 29.7208 15.7691 29.7474 15.8561 29.8406C15.9431 29.9337 15.9631 30.0624 15.8962 30.1201Z" fill="#215695"/>
<path d="M16.4271 30.8898C16.3445 30.9474 16.204 30.8898 16.1259 30.7744C16.1043 30.7537 16.0871 30.7289 16.0754 30.7015C16.0637 30.674 16.0576 30.6445 16.0576 30.6147C16.0576 30.5849 16.0637 30.5554 16.0754 30.5279C16.0871 30.5005 16.1043 30.4757 16.1259 30.455C16.2084 30.3995 16.349 30.455 16.4271 30.5681C16.5051 30.6813 16.5074 30.8321 16.4271 30.8898Z" fill="#215695"/>
<path d="M17.1485 31.6351C17.0749 31.7172 16.9254 31.695 16.8027 31.5841C16.68 31.4732 16.651 31.3223 16.7246 31.2425C16.7982 31.1626 16.9477 31.1848 17.0748 31.2935C17.202 31.4022 17.2266 31.5552 17.1485 31.6351Z" fill="#215695"/>
<path d="M18.1587 32.0699C18.1252 32.1741 17.9735 32.2207 17.8218 32.1763C17.6701 32.132 17.5697 32.0077 17.5987 31.9013C17.6277 31.7948 17.7817 31.746 17.9356 31.7948C18.0895 31.8436 18.1877 31.9612 18.1587 32.0699Z" fill="#215695"/>
<path d="M19.2604 32.1453C19.2604 32.2539 19.1355 32.3471 18.9749 32.3493C18.8142 32.3515 18.6826 32.2628 18.6826 32.1541C18.6826 32.0454 18.8075 31.9523 18.9682 31.9501C19.1288 31.9478 19.2604 32.0343 19.2604 32.1453Z" fill="#215695"/>
<path d="M20.2865 31.9745C20.3066 32.0832 20.1951 32.1963 20.0344 32.2229C19.8738 32.2495 19.7333 32.1852 19.7132 32.0787C19.6931 31.9723 19.8091 31.8569 19.9653 31.8281C20.1215 31.7992 20.2665 31.8658 20.2865 31.9745Z" fill="#215695"/>
</g>
<defs>
<clipPath id="clip0_157_99">
<rect x="10.168" y="9.60272" width="27.1135" height="27.1135" rx="6" fill="white"/>
</clipPath>
</defs>
</svg>
