<svg width="38" height="38" viewBox="0 0 38 38" fill="none" xmlns="http://www.w3.org/2000/svg">
<g clip-path="url(#clip0_110_375)">
<path fill-rule="evenodd" clip-rule="evenodd" d="M18.9931 0.950012C14.5106 0.952338 10.1752 2.53994 6.7619 5.42892C3.34864 8.31791 1.08016 12.3199 0.362095 16.7193C-0.35597 21.1187 0.523191 25.6286 2.84239 29.4426C5.1616 33.2567 8.7696 36.1261 13.0212 37.5378C13.9592 37.7119 14.3125 37.1306 14.3125 36.6363C14.3125 36.1419 14.2938 34.7088 14.2875 33.1419C9.03482 34.2767 7.92488 30.9253 7.92488 30.9253C7.06818 28.7492 5.83004 28.1771 5.83004 28.1771C4.11666 27.0144 5.95824 27.0362 5.95824 27.0362C7.8561 27.1699 8.85349 28.973 8.85349 28.973C10.5356 31.8424 13.2714 31.0124 14.3469 30.5274C14.5158 29.3119 15.0067 28.4849 15.5476 28.0155C11.3516 27.5429 6.94311 25.9326 6.94311 18.7387C6.91711 16.873 7.61339 15.0688 8.88788 13.6993C8.69403 13.2268 8.04681 11.318 9.07234 8.72519C9.07234 8.72519 10.6575 8.22156 14.2657 10.6496C17.3605 9.80804 20.6257 9.80804 23.7205 10.6496C27.3255 8.22156 28.9076 8.72519 28.9076 8.72519C29.9362 11.3117 29.289 13.2206 29.0952 13.6993C30.3737 15.069 31.0714 16.8764 31.043 18.7449C31.043 25.9543 26.6251 27.5429 22.423 28.0061C23.0983 28.5906 23.7018 29.7315 23.7018 31.4849C23.7018 33.9969 23.6799 36.0176 23.6799 36.6363C23.6799 37.1368 24.0207 37.7212 24.9774 37.5378C29.2296 36.1259 32.8379 33.256 35.1571 29.4413C37.4762 25.6266 38.355 21.116 37.6361 16.7162C36.9172 12.3164 34.6476 8.3144 31.2332 5.42591C27.8188 2.53742 23.4823 0.950864 18.9993 0.950012H18.9931Z" fill="#2AA7D6"/>
<path d="M7.26172 27.9066C7.22107 27.9999 7.07099 28.0279 6.94906 27.9626C6.82712 27.8973 6.73645 27.7761 6.78023 27.6797C6.824 27.5833 6.97095 27.5585 7.09289 27.6237C7.21482 27.689 7.30861 27.8134 7.26172 27.9066Z" fill="#2AA7D6"/>
<path d="M8.02761 28.7554C7.96286 28.7878 7.88878 28.7969 7.81805 28.781C7.74733 28.7651 7.68436 28.7253 7.63991 28.6683C7.51797 28.5377 7.49295 28.3574 7.58674 28.2766C7.68054 28.1958 7.84939 28.2331 7.97133 28.3636C8.09327 28.4942 8.12141 28.6745 8.02761 28.7554Z" fill="#2AA7D6"/>
<path d="M8.77169 29.8341C8.65601 29.9149 8.45902 29.8341 8.34959 29.6724C8.31933 29.6434 8.29527 29.6087 8.27883 29.5702C8.26239 29.5317 8.25391 29.4904 8.25391 29.4486C8.25391 29.4068 8.26239 29.3655 8.27883 29.327C8.29527 29.2885 8.31933 29.2538 8.34959 29.2248C8.46527 29.147 8.66226 29.2248 8.77169 29.3833C8.88112 29.5419 8.88425 29.7533 8.77169 29.8341V29.8341Z" fill="#2AA7D6"/>
<path d="M9.78151 30.8787C9.67833 30.9937 9.46886 30.9626 9.29689 30.8072C9.12493 30.6517 9.08427 30.4403 9.18745 30.3284C9.29063 30.2165 9.50011 30.2476 9.67833 30.3999C9.85655 30.5522 9.89094 30.7668 9.78151 30.8787V30.8787Z" fill="#2AA7D6"/>
<path d="M11.198 31.488C11.1511 31.6341 10.9385 31.6994 10.7259 31.6372C10.5133 31.5751 10.3726 31.401 10.4132 31.2517C10.4539 31.1025 10.6696 31.0341 10.8854 31.1025C11.1011 31.1709 11.2387 31.3357 11.198 31.488Z" fill="#2AA7D6"/>
<path d="M12.7429 31.5937C12.7429 31.746 12.5678 31.8766 12.3427 31.8797C12.1176 31.8828 11.9331 31.7585 11.9331 31.6061C11.9331 31.4538 12.1082 31.3232 12.3333 31.3201C12.5584 31.317 12.7429 31.4383 12.7429 31.5937Z" fill="#2AA7D6"/>
<path d="M14.1807 31.3543C14.2089 31.5067 14.0525 31.6652 13.8274 31.7025C13.6023 31.7398 13.4053 31.6497 13.3772 31.5004C13.3491 31.3512 13.5116 31.1896 13.7305 31.1491C13.9494 31.1087 14.1526 31.202 14.1807 31.3543Z" fill="#2AA7D6"/>
</g>
<defs>
<clipPath id="clip0_110_375">
<rect width="38" height="38" rx="6" fill="white"/>
</clipPath>
</defs>
</svg>
