<svg width="53" height="53" viewBox="0 0 53 53" fill="none" xmlns="http://www.w3.org/2000/svg">
<path d="M43.4122 21.4235L27.9539 7.89747C27.1213 7.16894 25.8781 7.16894 25.0455 7.89747L9.58714 21.4235C9.1079 21.8428 8.83301 22.4486 8.83301 23.0855V41.9584C8.83301 43.178 9.82171 44.1667 11.0413 44.1667H19.8747C21.0943 44.1667 22.083 43.178 22.083 41.9584V33.125C22.083 31.9054 23.0717 30.9167 24.2913 30.9167H28.708C29.9276 30.9167 30.9163 31.9054 30.9163 33.125V41.9584C30.9163 43.178 31.905 44.1667 33.1247 44.1667H41.958C43.1776 44.1667 44.1663 43.178 44.1663 41.9584V23.0855C44.1663 22.4487 43.8915 21.8428 43.4122 21.4235Z" stroke="#EEEEEE" stroke-width="3" stroke-linecap="round" stroke-linejoin="round"/>
</svg>
