<svg width="39" height="38" viewBox="0 0 39 38" fill="none" xmlns="http://www.w3.org/2000/svg">
<path d="M38.8439 11.1657C38.7527 9.14252 38.4258 7.75821 37.9621 6.54884C37.4756 5.30144 36.8295 4.23659 35.7729 3.18695C34.7163 2.13731 33.6597 1.47558 32.413 0.996397C31.2044 0.52482 29.8209 0.205364 27.7989 0.114091C25.7693 0.0228183 25.1232 0 19.9693 0C14.8079 0 14.1618 0.0228183 12.1398 0.114091C10.1178 0.205364 8.7343 0.532426 7.52565 0.996397C6.2714 1.48319 5.20719 2.1297 4.15818 3.18695C3.10917 4.2442 2.44784 5.30144 1.96894 6.54884C1.50525 7.75821 1.17839 9.14252 1.08717 11.1657C0.995949 13.1966 0.973145 13.8431 0.973145 19C0.973145 24.1645 0.995949 24.8111 1.08717 26.8343C1.17839 28.8575 1.50525 30.2418 1.96894 31.4512C2.45544 32.6986 3.10157 33.7634 4.15818 34.8131C5.20719 35.8703 6.2714 36.5244 7.51805 37.0036C8.7267 37.4752 10.1102 37.7946 12.1322 37.8859C14.1618 37.9772 14.8079 38 19.9617 38C25.1232 38 25.7693 37.9772 27.7913 37.8859C29.8133 37.7946 31.1968 37.4676 32.4054 37.0036C33.6521 36.5168 34.7163 35.8703 35.7653 34.8131C36.8143 33.7558 37.4756 32.6986 37.9545 31.4512C38.4258 30.2418 38.7451 28.8575 38.8363 26.8343C38.9275 24.8034 38.9503 24.1569 38.9503 19C38.9503 13.8431 38.9351 13.189 38.8439 11.1657ZM35.4308 26.6821C35.3472 28.538 35.0356 29.5496 34.7771 30.2114C34.435 31.0937 34.017 31.7326 33.348 32.4019C32.6791 33.0713 32.0482 33.4744 31.1588 33.8319C30.4898 34.0905 29.4788 34.4023 27.6317 34.486C25.6325 34.5773 25.032 34.6001 19.9541 34.6001C14.8763 34.6001 14.2758 34.5773 12.2766 34.486C10.4218 34.4023 9.41083 34.0905 8.7495 33.8319C7.86772 33.4896 7.2292 33.0713 6.56026 32.4019C5.89133 31.7326 5.48845 31.1013 5.13118 30.2114C4.87272 29.542 4.56106 28.5304 4.47745 26.6821C4.38623 24.6817 4.36342 24.0809 4.36342 19C4.36342 13.9191 4.38623 13.3183 4.47745 11.3179C4.56106 9.46197 4.87272 8.45036 5.13118 7.78863C5.47324 6.90633 5.89133 6.26742 6.56026 5.59808C7.2292 4.92874 7.86012 4.52562 8.7495 4.16813C9.41843 3.90953 10.4294 3.59768 12.2766 3.51401C14.2758 3.42274 14.8763 3.39992 19.9541 3.39992C25.032 3.39992 25.6325 3.42274 27.6317 3.51401C29.4864 3.59768 30.4974 3.90953 31.1588 4.16813C32.0406 4.51041 32.6791 4.92874 33.348 5.59808C34.017 6.26742 34.4198 6.89872 34.7771 7.78863C35.0356 8.45797 35.3472 9.46958 35.4308 11.3179C35.5221 13.3183 35.5449 13.9191 35.5449 19C35.5449 24.0809 35.5145 24.6817 35.4308 26.6821Z" fill="#2AA7D6"/>
<path d="M19.9542 9.23376C14.5571 9.23376 10.1938 13.6073 10.1938 19C10.1938 24.4003 14.5647 28.7662 19.9542 28.7662C25.3437 28.7662 29.7146 24.3851 29.7146 19C29.7146 13.5997 25.3513 9.23376 19.9542 9.23376ZM19.9542 25.3358C16.4575 25.3358 13.6221 22.4988 13.6221 19C13.6221 15.5012 16.4575 12.6641 19.9542 12.6641C23.4509 12.6641 26.2863 15.5012 26.2863 19C26.2863 22.4988 23.4509 25.3358 19.9542 25.3358Z" fill="#2AA7D6"/>
<path d="M30.0944 11.1353C31.3539 11.1353 32.3749 10.1137 32.3749 8.85348C32.3749 7.59326 31.3539 6.57166 30.0944 6.57166C28.835 6.57166 27.814 7.59326 27.814 8.85348C27.814 10.1137 28.835 11.1353 30.0944 11.1353Z" fill="#2AA7D6"/>
<path d="M0.950195 19C0.950195 24.1645 0.973 24.8111 1.06422 26.8343C1.15544 28.8575 1.4823 30.2418 1.94599 31.4512C2.43249 32.6986 3.07862 33.7634 4.13523 34.8131C5.18424 35.8627 6.24846 36.5244 7.4951 37.0036C8.70375 37.4752 10.0872 37.7946 12.1092 37.8859C14.1388 37.9772 14.785 38 19.9388 38C25.1002 38 25.7464 37.9772 27.7684 37.8859C29.7904 37.7946 31.1738 37.4676 32.3825 37.0036C33.6291 36.5168 34.6933 35.8703 35.7424 34.8131C36.7914 33.7634 37.4527 32.6986 37.9316 31.4512C38.4029 30.2418 38.7221 28.8575 38.8134 26.8343C38.9046 24.8034 38.9274 24.1569 38.9274 19C38.9274 13.8355 38.9046 13.189 38.8134 11.1657C38.7221 9.14252 38.3953 7.75821 37.9316 6.54884C37.4451 5.30144 36.799 4.23659 35.7424 3.18695C34.7009 2.1297 33.6367 1.47558 32.3901 0.996397C31.1814 0.52482 29.798 0.205364 27.776 0.114091C25.7464 0.0228183 25.1002 0 19.9464 0C14.785 0 14.1388 0.0228183 12.1168 0.114091C10.0948 0.205364 8.71135 0.532426 7.50271 0.996397C6.25606 1.48319 5.19184 2.1297 4.14283 3.18695C3.09382 4.2442 2.43249 5.30144 1.9536 6.54884C1.4823 7.75821 1.15544 9.14252 1.06422 11.1657C0.973 13.189 0.950195 13.8355 0.950195 19ZM4.37848 19C4.37848 13.9267 4.40129 13.3183 4.4925 11.3179C4.57612 9.46197 4.88778 8.45036 5.14623 7.78863C5.4883 6.90633 5.90639 6.26742 6.57532 5.59808C7.24425 4.92874 7.87518 4.52562 8.76456 4.16813C9.43349 3.90953 10.4445 3.59768 12.2917 3.51401C14.2909 3.42274 14.8914 3.39992 19.9692 3.39992C25.047 3.39992 25.6475 3.42274 27.6467 3.51401C29.5015 3.59768 30.5125 3.90953 31.1738 4.16813C32.0556 4.51041 32.6941 4.92874 33.3631 5.59808C34.032 6.26742 34.4349 6.89872 34.7922 7.78863C35.0506 8.45797 35.3623 9.46958 35.4459 11.3179C35.5371 13.3183 35.5599 13.9191 35.5599 19C35.5599 24.0809 35.5371 24.6817 35.4459 26.6821C35.3623 28.538 35.0506 29.5496 34.7922 30.2114C34.4501 31.0937 34.032 31.7326 33.3631 32.4019C32.6941 33.0713 32.0632 33.4744 31.1738 33.8319C30.5049 34.0905 29.4939 34.4023 27.6467 34.486C25.6475 34.5773 25.047 34.6001 19.9692 34.6001C14.8914 34.6001 14.2909 34.5773 12.2917 34.486C10.4369 34.4023 9.42589 34.0905 8.76456 33.8319C7.88278 33.4896 7.24425 33.0713 6.57532 32.4019C5.90639 31.7326 5.50351 31.1013 5.14623 30.2114C4.88778 29.542 4.57612 28.5304 4.4925 26.6821C4.39368 24.6817 4.37848 24.0733 4.37848 19Z" fill="#2AA7D6"/>
</svg>
