<svg width="47" height="47" viewBox="0 0 47 47" fill="none" xmlns="http://www.w3.org/2000/svg">
<circle cx="23.4419" cy="23.4419" r="22.4419" stroke="#215695" stroke-width="2"/>
<path d="M36.0805 18.2014C36.0195 16.848 35.8009 15.922 35.4907 15.1131C35.1653 14.2787 34.7331 13.5664 34.0263 12.8642C33.3195 12.1621 32.6127 11.7195 31.7788 11.3989C30.9703 11.0835 30.0449 10.8698 28.6923 10.8087C27.3347 10.7477 26.9025 10.7324 23.455 10.7324C20.0024 10.7324 19.5702 10.7477 18.2176 10.8087C16.8651 10.8698 15.9396 11.0886 15.1311 11.3989C14.2922 11.7246 13.5803 12.157 12.8786 12.8642C12.1769 13.5714 11.7345 14.2787 11.4142 15.1131C11.104 15.922 10.8853 16.848 10.8243 18.2014C10.7633 19.5598 10.748 19.9923 10.748 23.4419C10.748 26.8965 10.7633 27.329 10.8243 28.6824C10.8853 30.0357 11.104 30.9617 11.4142 31.7707C11.7396 32.6051 12.1718 33.3174 12.8786 34.0195C13.5803 34.7267 14.2922 35.1643 15.1261 35.4848C15.9345 35.8003 16.86 36.014 18.2125 36.075C19.5702 36.1361 20.0024 36.1513 23.4499 36.1513C26.9025 36.1513 27.3347 36.1361 28.6872 36.075C30.0398 36.014 30.9652 35.7952 31.7737 35.4848C32.6076 35.1592 33.3195 34.7267 34.0212 34.0195C34.7229 33.3123 35.1653 32.6051 35.4856 31.7707C35.8009 30.9617 36.0144 30.0357 36.0754 28.6824C36.1365 27.3239 36.1517 26.8914 36.1517 23.4419C36.1517 19.9923 36.1415 19.5548 36.0805 18.2014ZM33.7974 28.5806C33.7415 29.8221 33.533 30.4987 33.3602 30.9414C33.1313 31.5316 32.8517 31.959 32.4042 32.4067C31.9568 32.8544 31.5347 33.1241 30.9398 33.3632C30.4923 33.5362 29.816 33.7448 28.5804 33.8008C27.2431 33.8618 26.8414 33.8771 23.4448 33.8771C20.0481 33.8771 19.6464 33.8618 18.3091 33.8008C17.0685 33.7448 16.3922 33.5362 15.9498 33.3632C15.36 33.1342 14.9328 32.8544 14.4854 32.4067C14.0379 31.959 13.7684 31.5367 13.5294 30.9414C13.3565 30.4936 13.1481 29.817 13.0921 28.5806C13.0311 27.2425 13.0159 26.8406 13.0159 23.4419C13.0159 20.0432 13.0311 19.6413 13.0921 18.3031C13.1481 17.0617 13.3565 16.385 13.5294 15.9424C13.7582 15.3522 14.0379 14.9248 14.4854 14.4771C14.9328 14.0294 15.3549 13.7597 15.9498 13.5206C16.3973 13.3476 17.0735 13.139 18.3091 13.083C19.6464 13.022 20.0481 13.0067 23.4448 13.0067C26.8414 13.0067 27.2431 13.022 28.5804 13.083C29.8211 13.139 30.4974 13.3476 30.9398 13.5206C31.5296 13.7495 31.9568 14.0294 32.4042 14.4771C32.8517 14.9248 33.1212 15.3471 33.3602 15.9424C33.533 16.3901 33.7415 17.0668 33.7974 18.3031C33.8585 19.6413 33.8737 20.0432 33.8737 23.4419C33.8737 26.8406 33.8534 27.2425 33.7974 28.5806Z" fill="#215695"/>
<path d="M23.4449 16.9091C19.8347 16.9091 16.916 19.8346 16.916 23.4419C16.916 27.0542 19.8398 29.9747 23.4449 29.9747C27.05 29.9747 29.9738 27.0441 29.9738 23.4419C29.9738 19.8295 27.0551 16.9091 23.4449 16.9091ZM23.4449 27.68C21.1059 27.68 19.2093 25.7823 19.2093 23.4419C19.2093 21.1014 21.1059 19.2037 23.4449 19.2037C25.7839 19.2037 27.6805 21.1014 27.6805 23.4419C27.6805 25.7823 25.7839 27.68 23.4449 27.68Z" fill="#215695"/>
<path d="M30.2276 18.1811C31.0701 18.1811 31.753 17.4977 31.753 16.6547C31.753 15.8117 31.0701 15.1284 30.2276 15.1284C29.3851 15.1284 28.7021 15.8117 28.7021 16.6547C28.7021 17.4977 29.3851 18.1811 30.2276 18.1811Z" fill="#215695"/>
<path d="M10.7324 23.4419C10.7324 26.8965 10.7477 27.329 10.8087 28.6824C10.8697 30.0357 11.0884 30.9617 11.3985 31.7707C11.724 32.6051 12.1562 33.3174 12.863 34.0195C13.5647 34.7217 14.2765 35.1643 15.1104 35.4848C15.9189 35.8003 16.8444 36.014 18.1969 36.075C19.5546 36.1361 19.9868 36.1513 23.4343 36.1513C26.8868 36.1513 27.319 36.1361 28.6716 36.075C30.0242 36.014 30.9496 35.7952 31.7581 35.4848C32.592 35.1592 33.3039 34.7267 34.0056 34.0195C34.7073 33.3174 35.1496 32.6051 35.47 31.7707C35.7852 30.9617 35.9988 30.0357 36.0598 28.6824C36.1208 27.3239 36.1361 26.8914 36.1361 23.4419C36.1361 19.9872 36.1208 19.5548 36.0598 18.2014C35.9988 16.848 35.7801 15.922 35.47 15.1131C35.1446 14.2787 34.7123 13.5664 34.0056 12.8642C33.3089 12.157 32.5971 11.7195 31.7632 11.3989C30.9547 11.0835 30.0292 10.8698 28.6767 10.8087C27.319 10.7477 26.8868 10.7324 23.4393 10.7324C19.9868 10.7324 19.5546 10.7477 18.202 10.8087C16.8494 10.8698 15.924 11.0886 15.1155 11.3989C14.2816 11.7246 13.5697 12.157 12.868 12.8642C12.1663 13.5714 11.724 14.2787 11.4036 15.1131C11.0884 15.922 10.8697 16.848 10.8087 18.2014C10.7477 19.5548 10.7324 19.9872 10.7324 23.4419ZM13.0257 23.4419C13.0257 20.0483 13.0409 19.6413 13.1019 18.3031C13.1579 17.0617 13.3663 16.385 13.5392 15.9424C13.768 15.3522 14.0477 14.9248 14.4952 14.4771C14.9426 14.0294 15.3647 13.7597 15.9596 13.5206C16.4071 13.3476 17.0833 13.139 18.3189 13.083C19.6562 13.022 20.0579 13.0067 23.4546 13.0067C26.8512 13.0067 27.2529 13.022 28.5902 13.083C29.8309 13.139 30.5072 13.3476 30.9496 13.5206C31.5394 13.7495 31.9665 14.0294 32.414 14.4771C32.8615 14.9248 33.131 15.3471 33.37 15.9424C33.5428 16.3901 33.7513 17.0668 33.8072 18.3031C33.8683 19.6413 33.8835 20.0432 33.8835 23.4419C33.8835 26.8406 33.8683 27.2425 33.8072 28.5806C33.7513 29.8221 33.5428 30.4987 33.37 30.9414C33.1411 31.5316 32.8615 31.959 32.414 32.4067C31.9665 32.8544 31.5445 33.1241 30.9496 33.3632C30.5021 33.5362 29.8258 33.7448 28.5902 33.8008C27.2529 33.8618 26.8512 33.8771 23.4546 33.8771C20.0579 33.8771 19.6562 33.8618 18.3189 33.8008C17.0783 33.7448 16.402 33.5362 15.9596 33.3632C15.3698 33.1342 14.9426 32.8544 14.4952 32.4067C14.0477 31.959 13.7782 31.5367 13.5392 30.9414C13.3663 30.4936 13.1579 29.817 13.1019 28.5806C13.0358 27.2425 13.0257 26.8355 13.0257 23.4419Z" fill="#215695"/>
</svg>
