<svg width="100" height="100" viewBox="0 0 100 100" fill="none" xmlns="http://www.w3.org/2000/svg">
<path d="M29.167 79.1667C29.167 72.2631 38.4944 66.6667 50.0003 66.6667C61.5063 66.6667 70.8337 72.2631 70.8337 79.1667" stroke="#EEEEEE" stroke-width="3" stroke-linecap="round" stroke-linejoin="round"/>
<path d="M50 54.1667C56.9036 54.1667 62.5 48.5702 62.5 41.6667C62.5 34.7631 56.9036 29.1667 50 29.1667C43.0964 29.1667 37.5 34.7631 37.5 41.6667C37.5 48.5702 43.0964 54.1667 50 54.1667Z" stroke="#EEEEEE" stroke-width="3" stroke-linecap="round" stroke-linejoin="round"/>
<path d="M50 87.5C70.7107 87.5 87.5 70.7107 87.5 50C87.5 29.2893 70.7107 12.5 50 12.5C29.2893 12.5 12.5 29.2893 12.5 50C12.5 70.7107 29.2893 87.5 50 87.5Z" stroke="#EEEEEE" stroke-width="3" stroke-miterlimit="10" stroke-linecap="round" stroke-linejoin="round"/>
</svg>
