<svg width="35" height="35" viewBox="0 0 35 35" fill="none" xmlns="http://www.w3.org/2000/svg">
<g clip-path="url(#clip0_126_178)">
<path d="M0 35L2.47373 26.0171C0.944364 23.3805 0.142072 20.3945 0.15043 17.342C0.15043 7.77685 7.97277 0 17.5752 0C22.2385 0 26.6177 1.8049 29.9021 5.08199C33.1948 8.35908 35.0083 12.7174 35 17.3503C35 26.9154 27.1776 34.6923 17.5668 34.6923H17.5585C14.6418 34.6923 11.7753 33.9603 9.22635 32.5796L0 35ZM9.66929 29.4439L10.1958 29.76C12.4188 31.0741 14.9678 31.7645 17.5668 31.7728H17.5752C25.5563 31.7728 32.0582 25.3101 32.0582 17.3586C32.0582 13.5076 30.5539 9.8895 27.8211 7.16136C25.0883 4.43322 21.4446 2.93607 17.5752 2.93607C9.59407 2.92776 3.09217 9.39045 3.09217 17.342C3.09217 20.0618 3.85267 22.7151 5.30682 25.0107L5.64947 25.5597L4.18696 30.8745L9.66929 29.4439Z" fill="#2AA7D6"/>
<path d="M0 35L2.47373 26.0171C0.944364 23.3805 0.142072 20.3945 0.15043 17.342C0.15043 7.77685 7.97277 0 17.5752 0C22.2385 0 26.6177 1.8049 29.9021 5.08199C33.1948 8.35908 35.0083 12.7174 35 17.3503C35 26.9154 27.1776 34.6923 17.5668 34.6923H17.5585C14.6418 34.6923 11.7753 33.9603 9.22635 32.5796L0 35ZM9.66929 29.4439L10.1958 29.76C12.4188 31.0741 14.9678 31.7645 17.5668 31.7728H17.5752C25.5563 31.7728 32.0582 25.3101 32.0582 17.3586C32.0582 13.5076 30.5539 9.8895 27.8211 7.16136C25.0883 4.43322 21.4446 2.93607 17.5752 2.93607C9.59407 2.92776 3.09217 9.39045 3.09217 17.342C3.09217 20.0618 3.85267 22.7151 5.30682 25.0107L5.64947 25.5597L4.18696 30.8745L9.66929 29.4439Z" fill="#2AA7D6"/>
<path fill-rule="evenodd" clip-rule="evenodd" d="M13.2208 10.0891C12.8949 9.36548 12.5522 9.34885 12.243 9.34053C11.9923 9.33221 11.6998 9.33221 11.4073 9.33221C11.1148 9.33221 10.6468 9.44034 10.2456 9.87285C9.84447 10.3054 8.72461 11.3534 8.72461 13.491C8.72461 15.6202 10.2874 17.683 10.5047 17.9741C10.722 18.2652 13.5216 22.7816 17.9426 24.52C21.6198 25.9672 22.3719 25.6761 23.1659 25.6012C23.9598 25.5264 25.7399 24.5532 26.1076 23.5385C26.467 22.5238 26.467 21.6587 26.3583 21.4758C26.2497 21.2928 25.9572 21.1846 25.5226 20.9684C25.088 20.7521 22.9486 19.7041 22.5474 19.5544C22.1463 19.413 21.8538 19.3382 21.5696 19.7707C21.2771 20.2032 20.4414 21.1763 20.1907 21.4674C19.94 21.7585 19.6809 21.7918 19.2463 21.5756C18.8118 21.3593 17.4077 20.9018 15.7447 19.4213C14.4493 18.2735 13.5718 16.8512 13.3211 16.4187C13.0704 15.9862 13.296 15.7533 13.5133 15.5371C13.7055 15.3458 13.9479 15.0297 14.1651 14.7802C14.3824 14.5306 14.4577 14.3477 14.5997 14.0566C14.7418 13.7654 14.6749 13.5159 14.5663 13.2997C14.4577 13.0917 13.6052 10.9458 13.2208 10.0891Z" fill="#2AA7D6"/>
</g>
<defs>
<clipPath id="clip0_126_178">
<rect width="35" height="35" rx="6" fill="white"/>
</clipPath>
</defs>
</svg>
