<svg width="48" height="48" viewBox="0 0 48 48" fill="none" xmlns="http://www.w3.org/2000/svg">
<circle cx="23.6069" cy="24.0068" r="22.4419" stroke="#215695" stroke-width="2"/>
<path d="M12.0264 35.0216L13.6632 29.0777C12.6513 27.333 12.1204 25.3572 12.1259 23.3373C12.1259 17.0081 17.3019 11.8622 23.6559 11.8622C26.7416 11.8622 29.6393 13.0565 31.8125 15.2249C33.9913 17.3934 35.1913 20.2773 35.1858 23.3428C35.1858 29.6721 30.0098 34.818 23.6503 34.818H23.6448C21.7148 34.818 19.8181 34.3337 18.1314 33.4201L12.0264 35.0216ZM18.4245 31.3452L18.7729 31.5543C20.2439 32.4239 21.9305 32.8807 23.6503 32.8862H23.6559C28.937 32.8862 33.2393 28.6099 33.2393 23.3484C33.2393 20.8001 32.2439 18.4061 30.4356 16.6008C28.6273 14.7956 26.2162 13.805 23.6559 13.805C18.3748 13.7995 14.0724 18.0758 14.0724 23.3373C14.0724 25.137 14.5757 26.8927 15.5379 28.4117L15.7646 28.775L14.7969 32.2918L18.4245 31.3452Z" fill="#215695"/>
<path d="M12.0264 35.0216L13.6632 29.0777C12.6513 27.333 12.1204 25.3572 12.1259 23.3373C12.1259 17.0081 17.3019 11.8622 23.6559 11.8622C26.7416 11.8622 29.6393 13.0565 31.8125 15.2249C33.9913 17.3934 35.1913 20.2773 35.1858 23.3428C35.1858 29.6721 30.0098 34.818 23.6503 34.818H23.6448C21.7148 34.818 19.8181 34.3337 18.1314 33.4201L12.0264 35.0216ZM18.4245 31.3452L18.7729 31.5543C20.2439 32.4239 21.9305 32.8807 23.6503 32.8862H23.6559C28.937 32.8862 33.2393 28.6099 33.2393 23.3484C33.2393 20.8001 32.2439 18.4061 30.4356 16.6008C28.6273 14.7956 26.2162 13.805 23.6559 13.805C18.3748 13.7995 14.0724 18.0758 14.0724 23.3373C14.0724 25.137 14.5757 26.8927 15.5379 28.4117L15.7646 28.775L14.7969 32.2918L18.4245 31.3452Z" fill="#215695"/>
<path fill-rule="evenodd" clip-rule="evenodd" d="M20.7749 18.5382C20.5593 18.0594 20.3325 18.0484 20.1279 18.0429C19.962 18.0374 19.7685 18.0374 19.5749 18.0374C19.3814 18.0374 19.0717 18.1089 18.8063 18.3951C18.5408 18.6813 17.7998 19.3747 17.7998 20.7892C17.7998 22.1981 18.8339 23.563 18.9777 23.7557C19.1215 23.9483 20.974 26.9368 23.8993 28.0871C26.3325 29.0447 26.8302 28.8521 27.3556 28.8025C27.8809 28.753 29.0588 28.1091 29.3021 27.4376C29.5399 26.7662 29.5399 26.1938 29.468 26.0727C29.3961 25.9516 29.2026 25.8801 28.915 25.737C28.6275 25.5939 27.2118 24.9004 26.9463 24.8014C26.6809 24.7078 26.4874 24.6583 26.2993 24.9445C26.1058 25.2307 25.5528 25.8746 25.3869 26.0672C25.221 26.2598 25.0496 26.2819 24.762 26.1388C24.4745 25.9957 23.5454 25.693 22.445 24.7133C21.5878 23.9538 21.0072 23.0127 20.8413 22.7265C20.6754 22.4403 20.8247 22.2862 20.9685 22.1431C21.0957 22.0165 21.256 21.8074 21.3998 21.6423C21.5436 21.4772 21.5934 21.3561 21.6874 21.1634C21.7814 20.9708 21.7371 20.8057 21.6652 20.6626C21.5934 20.525 21.0293 19.1051 20.7749 18.5382Z" fill="#215695"/>
</svg>
